# xmcd
#
# Track frame offsets: 
#        150
#        15818
#        30466
#        47739
#        62177
#        77290
#        94383
#        118031
#        135866
#        154571
#        175526
#        186814
#        201079
#        219244
#        234679
#        253759
#        271287
#        288095
#        303358
#        313161
#
# Disc length: 4382 seconds
#
# Revision: 0
# Processed by: cddbd v1.5.2PL0 Copyright (c) Steve Scherf et al.
# Submitted via: ExactAudioCopy v1.3
#
DISCID=00111c14
DTITLE=Marcos Paulo and Marcelo - As 20 Mais
DYEAR=1900
DGENRE=Sertaneja
TTITLE0=Dor de amor
TTITLE1=Tudo bem
TTITLE2=Tribunal do amor
TTITLE3=Apaixonado
TTITLE4=Mesa de bar
TTITLE5=Não quero mais
TTITLE6=Mais uma noite vou dormir sem o meu bem
TTITLE7=Coração de areia
TTITLE8=Fim de noite
TTITLE9=Lembranças
TTITLE10=Eu você e ela
TTITLE11=Canarinho do peito amarelo
TTITLE12=18 anos
TTITLE13=Balançando o Brasil
TTITLE14=Filho do Brasil
TTITLE15=Vamos brindar
TTITLE16=Bebendo todas
TTITLE17=Além do coração
TTITLE18=Menino matuto
TTITLE19=Deus faz tudo certo
EXTD=
EXTT0=
EXTT1=
EXTT2=
EXTT3=
EXTT4=
EXTT5=
EXTT6=
EXTT7=
EXTT8=
EXTT9=
EXTT10=
EXTT11=
EXTT12=
EXTT13=
EXTT14=
EXTT15=
EXTT16=
EXTT17=
EXTT18=
EXTT19=
PLAYORDER=
